<svg width="46" height="47" viewBox="0 0 46 47" fill="none" xmlns="http://www.w3.org/2000/svg">
<path fill-rule="evenodd" clip-rule="evenodd" d="M34.7629 27.6915C34.7629 28.6687 34.6174 29.6121 34.3493 30.4938C34.3102 30.6173 34.2648 30.7577 34.2033 30.9206C33.9403 31.6506 33.5995 32.3414 33.1854 32.9647L32.8266 33.5039H13.2123V31.1059H31.5172C31.6912 30.7858 31.8417 30.4545 31.9648 30.1119C31.9934 30.0277 32.032 29.921 32.0717 29.7918C32.2732 29.1292 32.3846 28.4216 32.3846 27.6915H32.3739C32.3739 26.6357 32.1495 25.6417 31.7466 24.7432C31.6688 24.5747 31.5961 24.4231 31.5172 24.2827H13.1731L12.815 23.7436C12.4014 23.1202 12.0539 22.4295 11.7914 21.6994C11.7691 21.6321 11.7517 21.5815 11.7355 21.5197C11.7069 21.4355 11.6734 21.3457 11.6515 21.2726C11.3773 20.391 11.2318 19.4475 11.2318 18.4704H11.2262C11.2262 17.072 11.5284 15.7411 12.0768 14.5393C12.1776 14.3147 12.2889 14.0844 12.4238 13.8486C12.5525 13.6183 12.6812 13.3993 12.815 13.2027V13.1971L13.1681 12.658H32.788V15.0616H14.4776C14.4048 15.202 14.3265 15.3536 14.2537 15.5221C13.8452 16.4206 13.6214 17.4146 13.6214 18.4704H13.6158C13.6158 19.2004 13.7277 19.9024 13.9292 20.5707C13.9678 20.6998 14.0013 20.8065 14.0355 20.8908C14.0802 21.0143 14.1301 21.1379 14.181 21.2558C14.27 21.4692 14.3712 21.677 14.4776 21.8792H32.8266L33.1854 22.4183V22.4239C33.3197 22.6204 33.4478 22.8395 33.5771 23.0697C33.7052 23.3112 33.8228 23.5358 33.9235 23.7604C34.4669 24.9622 34.7691 26.2932 34.7691 27.6915H34.7629ZM40.3036 22.2948C39.8956 13.0568 32.3067 5.69448 23.001 5.69448C13.6499 5.69448 6.03356 13.1298 5.69164 22.4296C5.68661 22.643 5.67541 22.862 5.67541 23.081C5.67541 32.684 13.4311 40.4675 23.001 40.4675C32.5697 40.4675 40.3265 32.684 40.3265 23.081C40.3265 22.8171 40.3153 22.5587 40.3036 22.2948ZM23.0005 42.8148C12.1379 42.8148 3.33524 33.9812 3.33524 23.0809C3.33524 23.0191 3.34139 22.963 3.34139 22.9012C3.43653 12.0852 12.2 3.347 23.0005 3.347C33.7506 3.347 42.4744 12.0009 42.654 22.744C42.6591 22.8563 42.6647 22.9686 42.6647 23.0809C42.6647 33.9812 33.8626 42.8148 23.0005 42.8148ZM23.0006 0C10.2968 0 0 10.3331 0 23.0809C0 35.8288 10.2968 46.1619 23.0006 46.1619C35.7037 46.1619 46 35.8288 46 23.0809C46 10.3331 35.7037 0 23.0006 0ZM34.7629 27.6915C34.7629 28.6687 34.6174 29.6121 34.3493 30.4938C34.3102 30.6173 34.2648 30.7577 34.2033 30.9206C33.9403 31.6506 33.5995 32.3414 33.1854 32.9647L32.8266 33.5039H13.2123V31.1059H31.5172C31.6912 30.7858 31.8417 30.4545 31.9648 30.1119C31.9934 30.0277 32.032 29.921 32.0717 29.7918C32.2732 29.1292 32.3846 28.4216 32.3846 27.6915H32.3739C32.3739 26.6357 32.1495 25.6417 31.7466 24.7432C31.6688 24.5747 31.5961 24.4231 31.5172 24.2827H13.1731L12.815 23.7436C12.4014 23.1202 12.0539 22.4295 11.7914 21.6994C11.7691 21.6321 11.7517 21.5815 11.7355 21.5197C11.7069 21.4355 11.6734 21.3457 11.6515 21.2726C11.3773 20.391 11.2318 19.4475 11.2318 18.4704H11.2262C11.2262 17.072 11.5284 15.7411 12.0768 14.5393C12.1776 14.3147 12.2889 14.0844 12.4238 13.8486C12.5525 13.6183 12.6812 13.3993 12.815 13.2027V13.1971L13.1681 12.658H32.788V15.0616H14.4776C14.4048 15.202 14.3265 15.3536 14.2537 15.5221C13.8452 16.4206 13.6214 17.4146 13.6214 18.4704H13.6158C13.6158 19.2004 13.7277 19.9024 13.9292 20.5707C13.9678 20.6998 14.0013 20.8065 14.0355 20.8908C14.0802 21.0143 14.1301 21.1379 14.181 21.2558C14.27 21.4692 14.3712 21.677 14.4776 21.8792H32.8266L33.1854 22.4183V22.4239C33.3197 22.6204 33.4478 22.8395 33.5771 23.0697C33.7052 23.3112 33.8228 23.5358 33.9235 23.7604C34.4669 24.9622 34.7691 26.2932 34.7691 27.6915H34.7629ZM23.001 5.69448C13.6499 5.69448 6.03356 13.1298 5.69164 22.4296C5.68661 22.643 5.67541 22.862 5.67541 23.081C5.67541 32.684 13.4311 40.4675 23.001 40.4675C32.5697 40.4675 40.3265 32.684 40.3265 23.081C40.3265 22.8171 40.3153 22.5587 40.3036 22.2948C39.8956 13.0568 32.3067 5.69448 23.001 5.69448ZM34.7629 27.6915C34.7629 28.6687 34.6174 29.6121 34.3493 30.4938C34.3102 30.6173 34.2648 30.7577 34.2033 30.9206C33.9403 31.6506 33.5995 32.3414 33.1854 32.9647L32.8266 33.5039H13.2123V31.1059H31.5172C31.6912 30.7858 31.8417 30.4545 31.9648 30.1119C31.9934 30.0277 32.032 29.921 32.0717 29.7918C32.2732 29.1292 32.3846 28.4216 32.3846 27.6915H32.3739C32.3739 26.6357 32.1495 25.6417 31.7466 24.7432C31.6688 24.5747 31.5961 24.4231 31.5172 24.2827H13.1731L12.815 23.7436C12.4014 23.1202 12.0539 22.4295 11.7914 21.6994C11.7691 21.6321 11.7517 21.5815 11.7355 21.5197C11.7069 21.4355 11.6734 21.3457 11.6515 21.2726C11.3773 20.391 11.2318 19.4475 11.2318 18.4704H11.2262C11.2262 17.072 11.5284 15.7411 12.0768 14.5393C12.1776 14.3147 12.2889 14.0844 12.4238 13.8486C12.5525 13.6183 12.6812 13.3993 12.815 13.2027V13.1971L13.1681 12.658H32.788V15.0616H14.4776C14.4048 15.202 14.3265 15.3536 14.2537 15.5221C13.8452 16.4206 13.6214 17.4146 13.6214 18.4704H13.6158C13.6158 19.2004 13.7277 19.9024 13.9292 20.5707C13.9678 20.6998 14.0013 20.8065 14.0355 20.8908C14.0802 21.0143 14.1301 21.1379 14.181 21.2558C14.27 21.4692 14.3712 21.677 14.4776 21.8792H32.8266L33.1854 22.4183V22.4239C33.3197 22.6204 33.4478 22.8395 33.5771 23.0697C33.7052 23.3112 33.8228 23.5358 33.9235 23.7604C34.4669 24.9622 34.7691 26.2932 34.7691 27.6915H34.7629ZM40.3036 22.2948C39.8956 13.0568 32.3067 5.69448 23.001 5.69448C13.6499 5.69448 6.03356 13.1298 5.69164 22.4296C5.68661 22.643 5.67541 22.862 5.67541 23.081C5.67541 32.684 13.4311 40.4675 23.001 40.4675C32.5697 40.4675 40.3265 32.684 40.3265 23.081C40.3265 22.8171 40.3153 22.5587 40.3036 22.2948Z" fill="white"/>
</svg>
